# xmcd CD database file
#
# Track frame offsets:
#	182
#	7892
#	12512
#	15540
#	17867
#	23615
#	26430
#	28790
#	39257
#	40817
#	51077
#	53335
#	57262
#	61507
#	68472
#	72222
#	77275
#	80560
#	83757
#	104947
#	107432
#	110232
#	114847
#	116995
#	119820
#
# Disc length: 1776 seconds
#
# Revision: 0
# Processed by: cddbd v1.4PL0 Copyright (c) Steve Scherf et al.
# Submitted via: CDex 1.50
#
DISCID=3306ee19
DTITLE=B. B. King - Blues Master II
DYEAR=1992
DGENRE=Blues
TTITLE0=You Done Lost Your Good Thing Now - First Solo
TTITLE1=You Done Lost Your Good Thing Now - Second Solo
TTITLE2=Examples 1-3
TTITLE3=Examples 4-6
TTITLE4=Example 7
TTITLE5=Payin' The Cost To Be The Boss - Intro
TTITLE6=Payin' The Cost To Be The Boss - First Solo
TTITLE7=Payin' The Cost To Be The Boss - Second Solo
TTITLE8=Examples 8-9
TTITLE9=Riffin'
TTITLE10=Examples 10-11
TTITLE11=Examples 12-14
TTITLE12=Three O'Clock Blues - Intro
TTITLE13=Three O'Clock Blues - First Solo
TTITLE14=Three O'Clock Blues - Second Solo
TTITLE15=Examples 15-17
TTITLE16=Example 18
TTITLE17=Examples 19-22
TTITLE18=Blues Funk
TTITLE19=Examples 23-25
TTITLE20=Examples 26-28
TTITLE21=Example 29
TTITLE22=When It All Comes Down, I'll Still Be Around - Intro
TTITLE23=When It All Comes Down, I'll Still Be Around - First Solo
TTITLE24=When It All Comes Down, I'll Still Be Around - Second Solo
EXTD=YEAR: 1992
EXTT0=
EXTT1=
EXTT2=
EXTT3=
EXTT4=
EXTT5=
EXTT6=
EXTT7=
EXTT8=
EXTT9=
EXTT10=
EXTT11=
EXTT12=
EXTT13=
EXTT14=
EXTT15=
EXTT16=
EXTT17=
EXTT18=
EXTT19=
EXTT20=
EXTT21=
EXTT22=
EXTT23=
EXTT24=
PLAYORDER=
